<svg version="1.2" xmlns="http://www.w3.org/2000/svg" viewBox="0 0 1572 321" width="1572" height="321">
	<title>GuardantHealthMasterLogo_ND_RGBcropped-svg</title>
	<style>
		.s0 { fill: #005ab9 } 
		.s1 { fill: #eb1c2d } 
	</style>
	<g id="Layer">
		<path id="Layer" fill-rule="evenodd" class="s0" d="m208.1 314.1c-124.3 35.4-236-75.9-200.4-199.8 14.8-51.4 55.3-91.9 106.9-106.6 124.3-35.5 235.9 75.9 200.4 199.8-14.8 51.4-55.4 91.9-106.9 106.6zm-35.3-293.3c-86.8-6.9-158.8 65-151.9 151.5 5.3 68.1 60.7 123.3 129 128.6 86.8 6.9 158.8-64.9 151.9-151.5-5.7-68-60.7-123.2-129-128.6z"/>
		<path id="Layer" class="s1" d="m161.5 259.5c-44.4-0.3-62.6-39.8-62.6-61.8 0-25.7 21.1-57.4 28.9-71.5 23.3-40.8 33.7-72.4 33.7-72.4 0 0 12.9 35.7 34.3 73 16 28.3 28.9 46.2 28.9 71.6 0 21.9-18.9 60.8-63.2 61.1z"/>
		<g id="Layer">
			<path id="Layer" fill-rule="evenodd" class="s0" d="m1571.4 79.5v18.2h-49.4v145.8h-18.9v-145.8h-48.8v-18.2zm-150.6 0h18.2v164h-5.3l-0.3-0.3-105.4-120.4v120.7h-19.2v-164h5.3l0.4 0.3 106.3 122.3zm-627.3 0.7l76.2 163.4h-19.5l-26.2-53.4h-68.5l-24.6 53.4h-20.4l0.6-1.6 76.5-162.5h5.3zm-3.8 37.7l-26.1 54.9h51.9zm429.1-37.7l76.1 163.4h-19.8l-0.3-0.6-24.9-52.7h-68.5l-25.5 53.3h-20.5l0.7-1.5 77.3-162.5h5.4zm-3.2 37.6l-26.1 54.9h52.3zm-72.1 45.8c0 16-3.8 30.1-11 43-6.9 12.8-16.4 22.3-27.4 27.6-11.3 5.9-27.3 9.1-47.5 9.1h-53.1v-164.1h35.2c23 0 40.6 2.2 52.9 6 16 6 28.9 15.7 37.7 29.2 8.8 14.4 13.2 31 13.2 49.2zm-29.6-39.2c-7.5-11-17.6-18.2-30.8-22.3-11.3-2.8-28.6-4.4-50-4.4h-10.7v128.6h17.6c23 0 37.8-1.2 46.3-4.3 11.9-3.8 21.7-10.7 28.3-20.8 6.6-9.7 10-21.9 10-37 0-15.6-3.4-28.8-10.7-39.8zm-617.8 57.1v-18.2h72.4v0.9c0 25.1-7.6 45.5-22.3 60.9-16.1 15-35.6 22.3-60.4 22.3-30.2 0-53.8-10.1-71.8-30.8-13.8-16.3-20.4-34.5-20.4-55.2 0-16 4.1-30.4 12-43.6 7.8-13.2 18.5-23.8 31.7-30.7 13.9-7.6 29.3-11.6 45.9-11.6 13.9 0 26.5 2.2 40 7.5 12 5 24.2 13.2 35.9 23.8l0.9 1-14.2 13.5-0.6-0.7c-8.5-8.7-18.2-15.3-29.2-20.3-11-4.4-21.7-6.6-31.5-6.6-12.3 0-24.2 3.1-35.2 9.4-11.3 5.9-20.5 14.4-27.1 25.1-6 10.3-8.8 21.3-8.8 32.9 0 12.2 3.2 23.8 9.8 34.5 6.3 10.7 15.1 19.5 26.4 25.4 11.3 6.3 23.9 9.4 37.1 9.4 16.7 0 30.8-4.7 41.8-14.1 11.1-8.5 17.7-20.1 20.2-34.8zm194.7-1.3v-100.7h18.2v103.2c0 17.6-0.9 32-14.7 45.8-11.4 12-28.4 18.9-46 18.9-16.3 0-33-6.3-44-17-15.4-14.1-16.7-30.1-16.7-47.7v-103.2h18.3v100.1c0 11.9 0 25.4 7.5 35.5 8.2 10.9 23.3 15.9 34.9 15.9 12.9 0 26.1-5.9 34-15 8.5-10 8.5-23.8 8.5-35.8zm295.7 63.1h-22.7l-0.3-0.3-56.6-74.7h-8.8v75.3h-18.9v-164.1h33.4c16.9 0 29.5 0.7 37.1 2.2 9.7 2.2 17.9 7.6 23.9 14.8 6 7.5 9.1 16.9 9.1 27.6 0 9.7-1.9 17.2-6 23.5-4.7 7.2-11.3 12.6-18.8 15.7-7 3.1-15.8 5-27.1 5.3-0.9 0-0.6 0-1.6 0zm-61.3-92.5c11 0 18.2-0.9 23.3-3.1 5.3-1.9 9.1-5.1 11.6-9.4 2.8-4.8 4.4-9.5 4.4-14.2 0-4.7-1.6-10-4.4-14.1-2.8-4.4-6.3-7.2-11.3-9.4-4.4-1.6-12.6-2.5-23.9-2.5h-26.8v52.7z"/>
		</g>
	</g>
</svg>