<?xml version="1.0" encoding="UTF-8"?>
<svg xmlns="http://www.w3.org/2000/svg" version="1.1" viewBox="0 0 1200 1200">
  <defs>
    <style>
      .cls-1 {
        fill: #ffffff;
      }

      .cls-2 {
        fill: #ffffff;
      }
    </style>
  </defs>
  <!-- All white version for dark backgrounds -->
  <g>
    <g id="Layer_1">
      <path class="cls-1" d="M717.7,987c-312.8,89.2-593.9-192-504.7-504.7,37-129.8,139.5-232.3,269.3-269.3,312.8-89.2,593.9,192,504.7,504.7-37,129.8-139.5,232.3-269.3,269.3ZM628.9,246.5c-218.3-17.4-399.8,164.2-382.4,382.4,13.7,171.8,152.8,310.9,324.6,324.6,218.3,17.4,399.8-164.2,382.4-382.4-13.7-171.8-152.8-310.9-324.6-324.6Z"/>
      <path class="cls-2" d="M759.5,694.9c0-64.5-32.8-109.1-73.2-180.2-53.5-94.1-86.1-184.2-86.1-184.2h0s-26.5,80.3-85,183c-20.1,35.4-73.2,115.7-73.2,180.2s46,155.3,157.8,155.7h0c.1,0,.2,0,.3,0s.2,0,.3,0h0c111.8-.4,159-99,159-154.5Z"/>
    </g>
  </g>
</svg>
